<svg xmlns="http://www.w3.org/2000/svg" xmlns:xlink="http://www.w3.org/1999/xlink" width="755" zoomAndPan="magnify" viewBox="0 0 567 567.000005" height="755" preserveAspectRatio="xMidYMid meet" version="1.0"><defs><clipPath id="272234b502"><path d="M 0.5 0 L 9.171875 0 L 9.171875 40.609375 L 0.5 40.609375 Z M 0.5 0 " clip-rule="nonzero"/></clipPath><clipPath id="568d63fca9"><path d="M 62.101562 35.632812 L 504.570312 35.632812 L 504.570312 530.507812 L 62.101562 530.507812 Z M 62.101562 35.632812 " clip-rule="nonzero"/></clipPath></defs><g clip-path="url(#272234b502)"><path fill="#000000" d="M -4.597656 -33.644531 C -14.316406 -40.875 -29.757812 -46.820312 -50.484375 -51.316406 C -53.945312 -52.0625 -57.199219 -52.875 -60.339844 -53.6875 C -54.417969 -63.335938 -50.960938 -74.632812 -50.960938 -86.746094 L -50.960938 -135.464844 C -33.167969 -135.328125 -18.972656 -130.921875 -8.824219 -122.359375 C 0.0585938 -114.855469 4.671875 -106 5.28125 -95.332031 C 5.351562 -94.292969 6.207031 -93.503906 7.226562 -93.503906 C 7.269531 -93.503906 7.292969 -93.503906 7.339844 -93.503906 C 8.402344 -93.570312 9.238281 -94.472656 9.171875 -95.558594 C 8.492188 -107.355469 3.429688 -117.09375 -6.316406 -125.339844 C -17.1875 -134.539062 -32.21875 -139.238281 -50.960938 -139.375 L -50.960938 -183.480469 C -50.960938 -184.566406 -51.839844 -185.425781 -52.902344 -185.425781 L -114.480469 -185.425781 C -115.566406 -185.425781 -116.421875 -184.542969 -116.421875 -183.480469 C -116.421875 -182.421875 -115.542969 -181.539062 -114.480469 -181.539062 L -54.847656 -181.539062 L -54.847656 -86.746094 C -54.847656 -74.972656 -58.328125 -63.992188 -64.25 -54.75 C -77.589844 -58.546875 -87.851562 -63.089844 -94.859375 -68.308594 C -103.085938 -74.429688 -107.066406 -82.972656 -107.066406 -94.40625 C -107.066406 -105.75 -102.339844 -115.148438 -92.597656 -123.105469 C -91.761719 -123.78125 -91.648438 -125.003906 -92.328125 -125.839844 C -93.003906 -126.675781 -94.226562 -126.789062 -95.0625 -126.109375 C -105.753906 -117.363281 -110.953125 -106.992188 -110.953125 -94.40625 C -110.953125 -81.664062 -106.453125 -72.105469 -97.164062 -65.1875 C -90.019531 -59.855469 -79.734375 -55.246094 -66.558594 -51.382812 C -77.429688 -36.71875 -94.835938 -27.136719 -114.457031 -27.136719 C -147.347656 -27.136719 -174.089844 -53.890625 -174.089844 -86.746094 C -174.089844 -87.832031 -174.972656 -88.691406 -176.035156 -88.691406 C -177.117188 -88.691406 -177.976562 -87.808594 -177.976562 -86.746094 C -177.976562 -51.722656 -149.472656 -23.226562 -114.457031 -23.226562 C -93.003906 -23.226562 -74.039062 -33.9375 -62.535156 -50.253906 C -58.960938 -49.28125 -55.230469 -48.355469 -51.277344 -47.496094 C -31.089844 -43.136719 -16.148438 -37.417969 -6.878906 -30.503906 C 1.347656 -24.378906 5.328125 -15.839844 5.328125 -4.40625 C 5.328125 6.9375 0.601562 16.339844 -9.140625 24.292969 C -19.199219 32.519531 -32.941406 36.699219 -49.988281 36.699219 C -68.183594 36.699219 -82.652344 32.269531 -92.960938 23.570312 C -101.820312 16.066406 -106.453125 7.210938 -107.066406 -3.457031 C -107.132812 -4.539062 -108.015625 -5.375 -109.121094 -5.285156 C -110.183594 -5.21875 -111.019531 -4.3125 -110.953125 -3.230469 C -110.273438 8.566406 -105.210938 18.304688 -95.46875 26.550781 C -84.4375 35.886719 -69.132812 40.609375 -49.988281 40.609375 C -32.015625 40.609375 -17.457031 36.132812 -6.675781 27.34375 C 4.015625 18.597656 9.214844 8.226562 9.214844 -4.359375 C 9.191406 -17.171875 4.671875 -26.730469 -4.597656 -33.644531 Z M -4.597656 -33.644531 " fill-opacity="1" fill-rule="nonzero"/></g><g clip-path="url(#568d63fca9)"><path fill="#ba0000" d="M 504.761719 35.632812 L 465.710938 478.226562 L 283.464844 530.296875 L 101.21875 478.226562 L 62.164062 35.632812 Z M 176.730469 322.015625 L 228.800781 322.015625 L 230.070312 354.5625 L 283.464844 372.765625 L 336.855469 354.5625 L 340.722656 295.980469 L 226.207031 295.980469 L 223.5625 243.914062 L 343.363281 243.914062 L 347.230469 191.84375 L 167.628906 191.84375 L 163.714844 139.773438 L 401.945312 139.773438 L 395.433594 243.914062 L 386.28125 393.613281 L 283.464844 427.480469 L 180.644531 393.613281 Z M 176.730469 322.015625 " fill-opacity="1" fill-rule="evenodd"/></g></svg>