<svg xmlns="http://www.w3.org/2000/svg" xmlns:xlink="http://www.w3.org/1999/xlink" width="755" zoomAndPan="magnify" viewBox="0 0 567 567.000005" height="755" preserveAspectRatio="xMidYMid meet" version="1.0"><defs><clipPath id="5fe622b33d"><path d="M 76.96875 48 L 490.238281 48 L 490.238281 518 L 76.96875 518 Z M 76.96875 48 " clip-rule="nonzero"/></clipPath></defs><g clip-path="url(#5fe622b33d)"><path fill="#ba0000" d="M 114.457031 470.453125 L 76.851562 48.660156 L 490.074219 48.660156 L 452.4375 470.394531 L 283.199219 517.285156 Z M 114.457031 470.453125 " fill-opacity="1" fill-rule="nonzero"/></g><path fill="#f80000" d="M 420.203125 443.535156 L 452.378906 83.148438 L 283.460938 83.148438 L 283.460938 481.449219 Z M 420.203125 443.535156 " fill-opacity="1" fill-rule="nonzero"/><path fill="#383838" d="M 283.285156 134.875 L 153.738281 134.875 L 167.695312 291.3125 L 283.460938 291.3125 L 283.460938 239.585938 L 215.011719 239.585938 L 210.28125 186.617188 L 283.460938 186.617188 L 283.460938 134.875 Z M 283.460938 373.765625 L 283.242188 373.824219 L 225.628906 358.269531 L 221.96875 317.015625 L 170.007812 317.015625 L 177.257812 398.238281 L 283.226562 427.527344 L 283.460938 427.453125 Z M 283.460938 373.765625 " fill-opacity="1" fill-rule="nonzero"/><path fill="#383838" d="M 283.285156 291.3125 L 346.992188 291.3125 L 341.136719 358.386719 L 283.433594 373.953125 L 283.433594 427.777344 L 389.492188 398.382812 L 403.699219 239.558594 L 283.460938 239.558594 Z M 411.636719 148.757812 L 412.867188 134.875 L 283.257812 134.875 L 283.257812 186.601562 L 408.210938 186.601562 L 409.234375 174.972656 Z M 411.636719 148.757812 " fill-opacity="1" fill-rule="nonzero"/></svg>