<svg xmlns="http://www.w3.org/2000/svg" xmlns:xlink="http://www.w3.org/1999/xlink" width="755" zoomAndPan="magnify" viewBox="0 0 567 567.000005" height="755" preserveAspectRatio="xMidYMid meet" version="1.0"><defs><clipPath id="5fc88aca57"><path d="M 41.597656 41.097656 L 525.246094 41.097656 L 525.246094 524.746094 L 41.597656 524.746094 Z M 41.597656 41.097656 " clip-rule="nonzero"/></clipPath><clipPath id="85efe92d15"><path d="M 0.5 0 L 9.171875 0 L 9.171875 40.609375 L 0.5 40.609375 Z M 0.5 0 " clip-rule="nonzero"/></clipPath></defs><g clip-path="url(#5fc88aca57)"><path fill="#ba0000" d="M 41.597656 41.097656 L 41.597656 524.828125 L 525.328125 524.828125 L 525.328125 41.097656 Z M 85.574219 85.074219 L 481.351562 85.074219 L 481.351562 480.851562 L 85.574219 480.851562 Z M 376.78125 260.976562 C 345.449219 260.976562 325.203125 281.03125 325.203125 307.570312 C 325.203125 336.398438 342.105469 350.175781 367.589844 361.035156 L 376.394531 364.816406 C 392.488281 371.917969 402.074219 376.0625 402.074219 388.179688 C 402.074219 398.402344 392.691406 405.742188 378.070312 405.742188 C 360.742188 405.742188 350.890625 396.5625 343.371094 384.226562 L 314.554688 400.71875 C 324.777344 421.1875 346.078125 436.878906 378.886719 436.878906 C 412.308594 436.878906 437.375 419.542969 437.375 387.792969 C 437.375 358.128906 420.453125 344.953125 390.351562 332.222656 L 381.589844 328.441406 C 366.355469 321.757812 359.859375 317.371094 359.859375 306.925781 C 359.859375 298.351562 366.335938 291.679688 376.78125 291.679688 C 387.027344 291.679688 393.472656 296.066406 399.542969 306.925781 L 427.15625 289.191406 C 415.457031 268.71875 399.339844 260.976562 376.78125 260.976562 Z M 248.160156 263.078125 L 248.160156 383.195312 C 248.160156 400.742188 240.636719 405.3125 229.136719 405.3125 C 217.023438 405.3125 211.808594 396.976562 206.375 387.148438 L 177.5625 404.496094 C 185.917969 422.261719 202.386719 436.878906 230.597656 436.878906 C 261.929688 436.878906 283.460938 420.148438 283.460938 383.582031 L 283.460938 263.078125 Z M 248.160156 263.078125 " fill-opacity="1" fill-rule="nonzero"/></g><g clip-path="url(#85efe92d15)"><path fill="#000000" d="M -4.597656 -33.644531 C -14.316406 -40.875 -29.757812 -46.820312 -50.484375 -51.316406 C -53.945312 -52.0625 -57.199219 -52.875 -60.339844 -53.6875 C -54.417969 -63.335938 -50.960938 -74.632812 -50.960938 -86.746094 L -50.960938 -135.464844 C -33.167969 -135.328125 -18.972656 -130.921875 -8.824219 -122.359375 C 0.0585938 -114.855469 4.671875 -106 5.28125 -95.332031 C 5.351562 -94.292969 6.207031 -93.503906 7.226562 -93.503906 C 7.269531 -93.503906 7.292969 -93.503906 7.339844 -93.503906 C 8.402344 -93.570312 9.238281 -94.472656 9.171875 -95.558594 C 8.492188 -107.355469 3.429688 -117.09375 -6.316406 -125.339844 C -17.1875 -134.539062 -32.21875 -139.238281 -50.960938 -139.375 L -50.960938 -183.480469 C -50.960938 -184.566406 -51.839844 -185.425781 -52.902344 -185.425781 L -114.480469 -185.425781 C -115.566406 -185.425781 -116.421875 -184.542969 -116.421875 -183.480469 C -116.421875 -182.421875 -115.542969 -181.539062 -114.480469 -181.539062 L -54.847656 -181.539062 L -54.847656 -86.746094 C -54.847656 -74.972656 -58.328125 -63.992188 -64.25 -54.75 C -77.589844 -58.546875 -87.851562 -63.089844 -94.859375 -68.308594 C -103.085938 -74.429688 -107.066406 -82.972656 -107.066406 -94.40625 C -107.066406 -105.75 -102.339844 -115.148438 -92.597656 -123.105469 C -91.761719 -123.78125 -91.648438 -125.003906 -92.328125 -125.839844 C -93.003906 -126.675781 -94.226562 -126.789062 -95.0625 -126.109375 C -105.753906 -117.363281 -110.953125 -106.992188 -110.953125 -94.40625 C -110.953125 -81.664062 -106.453125 -72.105469 -97.164062 -65.1875 C -90.019531 -59.855469 -79.734375 -55.246094 -66.558594 -51.382812 C -77.429688 -36.71875 -94.835938 -27.136719 -114.457031 -27.136719 C -147.347656 -27.136719 -174.089844 -53.890625 -174.089844 -86.746094 C -174.089844 -87.832031 -174.972656 -88.691406 -176.035156 -88.691406 C -177.117188 -88.691406 -177.976562 -87.808594 -177.976562 -86.746094 C -177.976562 -51.722656 -149.472656 -23.226562 -114.457031 -23.226562 C -93.003906 -23.226562 -74.039062 -33.9375 -62.535156 -50.253906 C -58.960938 -49.28125 -55.230469 -48.355469 -51.277344 -47.496094 C -31.089844 -43.136719 -16.148438 -37.417969 -6.878906 -30.503906 C 1.347656 -24.378906 5.328125 -15.839844 5.328125 -4.40625 C 5.328125 6.9375 0.601562 16.339844 -9.140625 24.292969 C -19.199219 32.519531 -32.941406 36.699219 -49.988281 36.699219 C -68.183594 36.699219 -82.652344 32.269531 -92.960938 23.570312 C -101.820312 16.066406 -106.453125 7.210938 -107.066406 -3.457031 C -107.132812 -4.539062 -108.015625 -5.375 -109.121094 -5.285156 C -110.183594 -5.21875 -111.019531 -4.3125 -110.953125 -3.230469 C -110.273438 8.566406 -105.210938 18.304688 -95.46875 26.550781 C -84.4375 35.886719 -69.132812 40.609375 -49.988281 40.609375 C -32.015625 40.609375 -17.457031 36.132812 -6.675781 27.34375 C 4.015625 18.597656 9.214844 8.226562 9.214844 -4.359375 C 9.191406 -17.171875 4.671875 -26.730469 -4.597656 -33.644531 Z M -4.597656 -33.644531 " fill-opacity="1" fill-rule="nonzero"/></g></svg>